<?xml version="1.0" encoding="utf-8"?>
<!-- Generator: Adobe Illustrator 15.0.0, SVG Export Plug-In . SVG Version: 6.00 Build 0)  -->
<!DOCTYPE svg PUBLIC "-//W3C//DTD SVG 1.1//EN" "http://www.w3.org/Graphics/SVG/1.1/DTD/svg11.dtd">
<svg version="1.1" id="Layer_1" xmlns="http://www.w3.org/2000/svg" xmlns:xlink="http://www.w3.org/1999/xlink" x="0px" y="0px"
	 width="473.857px" height="108.04px" viewBox="0 0 473.857 108.04" enable-background="new 0 0 473.857 108.04"
	 xml:space="preserve">
<g>
	<defs>
		<rect id="SVGID_1_" width="473.857" height="108.04"/>
	</defs>
	<clipPath id="SVGID_2_">
		<use xlink:href="#SVGID_1_"  overflow="visible"/>
	</clipPath>
	<path clip-path="url(#SVGID_2_)" fill="#015174" d="M182.41,108.033h-23.851V32.76c0-18.093,14.667-32.76,32.76-32.76h77.954
		v11.095c0,6.105-4.95,11.054-11.057,11.054H192.17c-5.39,0-9.76,4.37-9.76,9.76V108.033z"/>
	<path clip-path="url(#SVGID_2_)" fill="#015174" d="M282.545,108.04h-77.952V96.946c0-6.106,4.949-11.056,11.055-11.056h66.046
		c5.392,0,9.76-4.369,9.76-9.76V0.007h23.852V75.28C315.305,93.373,300.638,108.04,282.545,108.04"/>
	<path clip-path="url(#SVGID_2_)" fill="#015174" d="M441.098,108.04H370.23c-18.063,0-32.759-14.696-32.759-32.76V32.759
		C337.472,14.696,352.168,0,370.23,0h70.867c18.063,0,32.759,14.696,32.759,32.759V75.28
		C473.856,93.344,459.161,108.04,441.098,108.04 M371.082,22.149c-5.383,0-9.761,4.378-9.761,9.76V76.13
		c0,5.383,4.378,9.761,9.761,9.761h69.165c5.382,0,9.76-4.378,9.76-9.761V31.909c0-5.382-4.378-9.76-9.76-9.76H371.082z"/>
	<path clip-path="url(#SVGID_2_)" fill="#015174" d="M103.625,0H12.208v11.094c0,6.106,4.95,11.055,11.055,11.055h79.513
		c5.39,0,9.76,4.37,9.76,9.76V42.52H32.76c-17.874,0-32.451,14.389-32.755,32.193C-0.309,93.04,15.08,108.04,33.41,108.04h47.936
		c9.159,0,16.576-7.424,16.576-16.582v-5.567H33.609c-5.381,0-9.759-5.229-9.759-10.61c0-5.383,4.378-10.611,9.759-10.611h78.926
		v14.394v6.828v22.149h23.85V32.76C136.386,14.667,121.719,0,103.625,0"/>
</g>
</svg>
